<svg version="1.1" id="Layer_1" xmlns="http://www.w3.org/2000/svg" xmlns:xlink="http://www.w3.org/1999/xlink" x="0px" y="0px"
	 width="100%" viewBox="0 0 500 500" enable-background="new 0 0 500 500" xml:space="preserve">
<path fill="#C6C804" opacity="1.000000" stroke="none" 
	d="
M269.000000,501.000000 
	C179.333359,501.000000 90.166710,501.000000 1.000048,501.000000 
	C1.000032,334.333405 1.000032,167.666794 1.000016,1.000137 
	C167.666565,1.000092 334.333130,1.000092 500.999756,1.000046 
	C500.999847,167.666519 500.999847,334.333038 500.999939,500.999786 
	C423.833344,501.000000 346.666656,501.000000 269.000000,501.000000 
M448.651184,395.121979 
	C461.019714,369.134491 463.862549,341.830139 459.504517,313.660614 
	C455.898651,290.352905 446.884003,269.475677 429.840698,252.721283 
	C409.670410,232.892822 384.658600,225.204956 357.015686,225.054718 
	C320.352661,224.855423 283.687775,224.996750 247.023666,225.012787 
	C245.588043,225.013412 244.152512,225.231750 242.528275,225.363983 
	C242.421158,226.847412 242.267380,227.984085 242.267212,229.120804 
	C242.256897,301.115784 242.300888,373.110840 242.159134,445.105499 
	C242.150375,449.554840 244.101776,449.832581 247.554611,449.825073 
	C283.551910,449.746887 319.549530,449.802246 355.546875,449.734100 
	C360.371124,449.724976 365.225433,449.498657 370.013275,448.930267 
	C405.268829,444.744476 431.921234,427.814545 448.651184,395.121979 
M235.080261,381.500000 
	C235.079956,332.530243 235.084885,283.560455 235.073761,234.590698 
	C235.072067,227.151047 233.425690,225.496414 225.966278,225.477188 
	C212.974365,225.443710 199.982269,225.455673 186.990280,225.469162 
	C178.697571,225.477768 177.153671,227.044800 177.148865,235.463028 
	C177.139343,252.119431 177.292374,268.778381 176.994110,285.429382 
	C176.951523,287.807373 175.307419,290.955597 173.393372,292.236877 
	C171.978256,293.184143 168.257889,292.458405 166.698349,291.138397 
	C154.431854,280.756348 140.050034,276.371826 124.367271,275.495575 
	C89.100304,273.525177 60.843838,288.173096 48.056831,322.581573 
	C40.252125,343.583191 39.471291,365.245056 42.724960,387.099091 
	C45.636925,406.657990 52.864773,424.261292 67.905998,437.973755 
	C90.999481,459.027161 131.150146,458.569733 152.298447,448.306824 
	C157.333832,445.863251 161.873703,442.355804 166.514160,439.153229 
	C171.185074,435.929718 175.651443,437.213257 176.996307,442.374512 
	C178.703842,448.927612 179.745850,449.760284 186.624619,449.772125 
	C199.616577,449.794495 212.608658,449.791748 225.600616,449.770630 
	C233.433868,449.757874 235.061768,448.168549 235.070526,440.464355 
	C235.092468,421.142944 235.079346,401.821442 235.080261,381.500000 
M175.823898,94.287201 
	C171.542236,114.293541 166.955856,134.240967 163.073471,154.324493 
	C159.855118,170.973007 163.912872,186.507965 172.917999,200.613266 
	C180.854935,213.045349 194.635178,215.871765 206.731339,207.447662 
	C211.704056,203.984543 215.881989,199.249329 219.982269,194.697189 
	C225.213852,188.889114 229.644989,182.336548 235.066620,176.728928 
	C242.360764,169.184601 249.409576,170.336334 254.310608,179.543854 
	C257.199463,184.971100 259.343933,190.789337 262.084991,196.301544 
	C268.866089,209.938248 278.666870,212.700714 291.521240,204.723190 
	C293.357025,203.583878 295.155792,202.357727 296.843628,201.011246 
	C313.727936,187.541611 326.547302,170.514206 338.576050,152.855118 
	C352.770691,132.016464 359.831665,108.131966 366.821167,84.320930 
	C368.659332,78.058876 369.544556,71.163971 369.129303,64.670830 
	C368.381165,52.972523 356.369385,45.154812 344.902588,47.760059 
	C335.199890,49.964489 332.057648,57.398540 331.130371,65.847672 
	C329.950775,76.595413 329.662445,87.443459 329.071655,98.252739 
	C328.205750,114.097031 322.028992,127.651093 311.013123,138.872406 
	C303.482574,146.543457 295.030792,145.778442 288.247650,137.446091 
	C281.401428,129.036316 280.692505,119.448288 286.249390,110.077843 
	C287.693420,107.642792 289.253479,105.275734 290.669342,102.824921 
	C296.564789,92.619873 299.289642,81.550041 299.070160,69.830040 
	C298.939301,62.841763 295.903259,57.270969 289.361877,54.129086 
	C275.050812,47.255409 256.992401,54.762329 253.294891,70.107605 
	C250.707993,80.843643 249.463791,92.051010 248.972580,103.107964 
	C248.313766,117.938408 243.580994,130.815323 233.716003,141.706161 
	C227.501236,148.567200 220.534256,149.894608 213.498505,146.413055 
	C205.558334,142.483978 201.451965,135.527008 203.626236,126.683525 
	C206.238419,116.058899 209.673553,105.577721 213.570465,95.346016 
	C216.828888,86.790627 219.188583,78.312675 218.353455,69.096649 
	C217.307098,57.549641 211.437317,54.391861 201.016129,59.568764 
	C186.806503,66.627609 180.402817,79.295677 175.823898,94.287201 
z"/>
<path fill="#EEECDD" opacity="1.000000" stroke="none" 
	d="
M448.459778,395.440796 
	C431.921234,427.814545 405.268829,444.744476 370.013275,448.930267 
	C365.225433,449.498657 360.371124,449.724976 355.546875,449.734100 
	C319.549530,449.802246 283.551910,449.746887 247.554611,449.825073 
	C244.101776,449.832581 242.150375,449.554840 242.159134,445.105499 
	C242.300888,373.110840 242.256897,301.115784 242.267212,229.120804 
	C242.267380,227.984085 242.421158,226.847412 242.528275,225.363983 
	C244.152512,225.231750 245.588043,225.013412 247.023666,225.012787 
	C283.687775,224.996750 320.352661,224.855423 357.015686,225.054718 
	C384.658600,225.204956 409.670410,232.892822 429.840698,252.721283 
	C446.884003,269.475677 455.898651,290.352905 459.504517,313.660614 
	C463.862549,341.830139 461.019714,369.134491 448.459778,395.440796 
M301.624969,364.499817 
	C301.621613,375.822113 301.626007,387.144440 301.608398,398.466736 
	C301.604889,400.722900 301.472412,402.849091 304.805511,402.777679 
	C321.274628,402.424744 337.832703,403.123413 354.195251,401.640350 
	C377.272858,399.548615 391.729492,385.692078 396.706604,363.027557 
	C400.546112,345.543457 400.552429,327.991577 396.680176,310.510468 
	C391.825287,288.593262 377.355560,274.884033 354.945282,273.111725 
	C337.735809,271.750671 320.363708,272.443604 303.063660,272.247772 
	C302.784973,272.244598 302.502747,272.555542 301.624786,273.069824 
	C301.624786,302.981567 301.624786,333.240662 301.624969,364.499817 
z"/>
<path fill="#EEECDD" opacity="1.000000" stroke="none" 
	d="
M235.080261,382.000000 
	C235.079346,401.821442 235.092468,421.142944 235.070526,440.464355 
	C235.061768,448.168549 233.433868,449.757874 225.600616,449.770630 
	C212.608658,449.791748 199.616577,449.794495 186.624619,449.772125 
	C179.745850,449.760284 178.703842,448.927612 176.996307,442.374512 
	C175.651443,437.213257 171.185074,435.929718 166.514160,439.153229 
	C161.873703,442.355804 157.333832,445.863251 152.298447,448.306824 
	C131.150146,458.569733 90.999481,459.027161 67.905998,437.973755 
	C52.864773,424.261292 45.636925,406.657990 42.724960,387.099091 
	C39.471291,365.245056 40.252125,343.583191 48.056831,322.581573 
	C60.843838,288.173096 89.100304,273.525177 124.367271,275.495575 
	C140.050034,276.371826 154.431854,280.756348 166.698349,291.138397 
	C168.257889,292.458405 171.978256,293.184143 173.393372,292.236877 
	C175.307419,290.955597 176.951523,287.807373 176.994110,285.429382 
	C177.292374,268.778381 177.139343,252.119431 177.148865,235.463028 
	C177.153671,227.044800 178.697571,225.477768 186.990280,225.469162 
	C199.982269,225.455673 212.974365,225.443710 225.966278,225.477188 
	C233.425690,225.496414 235.072067,227.151047 235.073761,234.590698 
	C235.084885,283.560455 235.079956,332.530243 235.080261,382.000000 
M151.627518,408.301086 
	C163.235779,405.800385 171.088821,399.015259 174.280441,387.528229 
	C178.564713,372.108612 178.601425,356.575806 173.759476,341.265564 
	C170.534531,331.068268 163.276230,324.390594 152.862000,322.580750 
	C144.764191,321.173492 136.281769,320.688934 128.098022,321.357635 
	C114.553207,322.464447 105.019104,329.656464 101.695763,343.372009 
	C98.110107,358.170166 98.050446,373.075500 101.961319,387.838776 
	C105.340645,400.595520 114.139427,407.622986 126.973999,408.803345 
	C134.843109,409.527100 142.858963,408.655151 151.627518,408.301086 
z"/>
<path fill="#EEECDD" opacity="1.000000" stroke="none" 
	d="
M175.929672,93.906219 
	C180.402817,79.295677 186.806503,66.627609 201.016129,59.568764 
	C211.437317,54.391861 217.307098,57.549641 218.353455,69.096649 
	C219.188583,78.312675 216.828888,86.790627 213.570465,95.346016 
	C209.673553,105.577721 206.238419,116.058899 203.626236,126.683525 
	C201.451965,135.527008 205.558334,142.483978 213.498505,146.413055 
	C220.534256,149.894608 227.501236,148.567200 233.716003,141.706161 
	C243.580994,130.815323 248.313766,117.938408 248.972580,103.107964 
	C249.463791,92.051010 250.707993,80.843643 253.294891,70.107605 
	C256.992401,54.762329 275.050812,47.255409 289.361877,54.129086 
	C295.903259,57.270969 298.939301,62.841763 299.070160,69.830040 
	C299.289642,81.550041 296.564789,92.619873 290.669342,102.824921 
	C289.253479,105.275734 287.693420,107.642792 286.249390,110.077843 
	C280.692505,119.448288 281.401428,129.036316 288.247650,137.446091 
	C295.030792,145.778442 303.482574,146.543457 311.013123,138.872406 
	C322.028992,127.651093 328.205750,114.097031 329.071655,98.252739 
	C329.662445,87.443459 329.950775,76.595413 331.130371,65.847672 
	C332.057648,57.398540 335.199890,49.964489 344.902588,47.760059 
	C356.369385,45.154812 368.381165,52.972523 369.129303,64.670830 
	C369.544556,71.163971 368.659332,78.058876 366.821167,84.320930 
	C359.831665,108.131966 352.770691,132.016464 338.576050,152.855118 
	C326.547302,170.514206 313.727936,187.541611 296.843628,201.011246 
	C295.155792,202.357727 293.357025,203.583878 291.521240,204.723190 
	C278.666870,212.700714 268.866089,209.938248 262.084991,196.301544 
	C259.343933,190.789337 257.199463,184.971100 254.310608,179.543854 
	C249.409576,170.336334 242.360764,169.184601 235.066620,176.728928 
	C229.644989,182.336548 225.213852,188.889114 219.982269,194.697189 
	C215.881989,199.249329 211.704056,203.984543 206.731339,207.447662 
	C194.635178,215.871765 180.854935,213.045349 172.917999,200.613266 
	C163.912872,186.507965 159.855118,170.973007 163.073471,154.324493 
	C166.955856,134.240967 171.542236,114.293541 175.929672,93.906219 
z"/>
<path fill="#C6C804" opacity="1.000000" stroke="none" 
	d="
M301.624878,363.999817 
	C301.624786,333.240662 301.624786,302.981567 301.624786,273.069824 
	C302.502747,272.555542 302.784973,272.244598 303.063660,272.247772 
	C320.363708,272.443604 337.735809,271.750671 354.945282,273.111725 
	C377.355560,274.884033 391.825287,288.593262 396.680176,310.510468 
	C400.552429,327.991577 400.546112,345.543457 396.706604,363.027557 
	C391.729492,385.692078 377.272858,399.548615 354.195251,401.640350 
	C337.832703,403.123413 321.274628,402.424744 304.805511,402.777679 
	C301.472412,402.849091 301.604889,400.722900 301.608398,398.466736 
	C301.626007,387.144440 301.621613,375.822113 301.624878,363.999817 
z"/>
<path fill="#C6C805" opacity="1.000000" stroke="none" 
	d="
M151.218231,408.400421 
	C142.858963,408.655151 134.843109,409.527100 126.973999,408.803345 
	C114.139427,407.622986 105.340645,400.595520 101.961319,387.838776 
	C98.050446,373.075500 98.110107,358.170166 101.695763,343.372009 
	C105.019104,329.656464 114.553207,322.464447 128.098022,321.357635 
	C136.281769,320.688934 144.764191,321.173492 152.862000,322.580750 
	C163.276230,324.390594 170.534531,331.068268 173.759476,341.265564 
	C178.601425,356.575806 178.564713,372.108612 174.280441,387.528229 
	C171.088821,399.015259 163.235779,405.800385 151.218231,408.400421 
z"/>
</svg>