<svg version="1.1" id="Layer_1" xmlns="http://www.w3.org/2000/svg" xmlns:xlink="http://www.w3.org/1999/xlink" x="0px" y="0px"
	 width="100%" viewBox="0 0 1080 1080" enable-background="new 0 0 1080 1080" xml:space="preserve">
<path fill="#C6C803" opacity="1.000000" stroke="none" 
	d="
M715.000000,1081.000000 
	C476.694122,1081.000000 238.888229,1081.000000 1.041167,1081.000000 
	C1.041167,721.068970 1.041167,361.137970 1.041167,1.103480 
	C360.889465,1.103480 720.778931,1.103480 1080.834229,1.103480 
	C1080.834229,360.999939 1080.834229,720.999939 1080.834229,1081.000000 
	C959.137512,1081.000000 837.318787,1081.000000 715.000000,1081.000000 
M871.794373,684.279053 
	C870.860657,669.170227 870.991333,653.903564 868.778992,638.984314 
	C863.634521,604.292053 850.344543,572.989319 825.936646,547.193237 
	C796.094360,515.653564 758.363037,501.054382 715.849426,500.272125 
	C654.206726,499.137909 592.529358,499.885162 530.866821,499.844177 
	C529.747803,499.843414 528.628723,500.019958 527.371338,500.125336 
	C527.371338,617.967834 527.371338,735.504028 527.371338,853.512085 
	C529.514832,853.512085 531.321045,853.512085 533.127258,853.512085 
	C589.790710,853.512085 646.454651,853.642944 703.117065,853.401184 
	C714.406799,853.352966 725.811829,852.661194 736.955994,850.929260 
	C787.701233,843.042725 825.789978,816.782898 849.962708,771.176941 
	C864.185669,744.342957 870.392273,715.374023 871.794373,684.279053 
M515.838562,785.500000 
	C515.838440,695.186340 515.840027,604.872620 515.835876,514.558960 
	C515.835327,503.511505 512.878723,500.495514 502.041016,500.489990 
	C480.712341,500.479126 459.383698,500.480194 438.055023,500.489410 
	C427.614227,500.493927 424.624451,503.434204 424.617584,513.787537 
	C424.599670,540.781616 424.591003,567.775757 424.631683,594.769775 
	C424.638885,599.542542 423.775543,603.784973 418.989624,606.071411 
	C414.189697,608.364624 410.606812,606.094666 406.699066,603.319458 
	C399.670502,598.327942 392.628082,593.052795 384.869995,589.449402 
	C362.988281,579.286072 339.688812,577.446167 315.956635,579.874573 
	C273.477448,584.221069 242.411011,605.254639 225.026428,644.457458 
	C206.540848,686.143127 206.048218,729.524353 216.660263,773.163696 
	C223.457687,801.116394 237.501038,824.791748 261.344238,842.089966 
	C298.889832,869.329224 372.736145,869.695190 407.929810,836.930359 
	C414.445587,830.864258 422.859741,834.117126 424.443726,842.680359 
	C426.075562,851.502380 428.453796,853.501282 437.503143,853.507874 
	C459.331696,853.523682 481.160278,853.531189 502.988800,853.503723 
	C512.530029,853.491760 515.819885,850.143311 515.831482,840.488159 
	C515.853210,822.492126 515.838257,804.496033 515.838562,785.500000 
M590.118164,336.688019 
	C591.981750,331.055420 593.409973,325.226624 595.834534,319.846832 
	C598.145752,314.718323 601.674377,310.154236 604.356812,305.174469 
	C613.249939,288.665161 617.485291,271.020233 616.002563,252.276779 
	C615.171448,241.770889 609.464905,234.297241 599.691772,230.169495 
	C576.879578,220.534500 550.965881,232.300308 544.005432,255.940231 
	C539.293457,271.943390 536.501221,288.309814 536.821655,305.177460 
	C536.971924,313.087769 536.633789,321.297791 534.677612,328.898621 
	C530.302979,345.896423 522.863098,361.537567 508.768188,372.903076 
	C499.429291,380.433533 489.735870,380.973907 479.986908,375.230865 
	C469.122192,368.830627 463.464935,358.669037 465.572723,347.416840 
	C467.374817,337.796478 469.682983,328.197388 472.724915,318.902283 
	C476.186401,308.325134 480.741455,298.107788 484.764984,287.712250 
	C489.892975,274.462982 491.062500,260.797363 487.991882,246.977585 
	C485.808655,237.151596 479.293457,233.528290 469.622833,236.389740 
	C465.681091,237.556076 461.903442,239.486694 458.280853,241.485825 
	C441.723022,250.623306 432.207367,265.417084 426.186005,282.705078 
	C413.036774,320.458038 405.016632,359.360077 401.263977,399.117828 
	C399.023468,422.854980 406.278229,444.283173 419.435059,463.652679 
	C427.676392,475.785614 439.756470,481.012085 454.540527,479.041412 
	C462.731506,477.949554 470.073334,474.408905 475.784454,468.719910 
	C484.134369,460.402374 491.732239,451.325562 499.579071,442.508667 
	C505.879944,435.428864 511.518555,427.650208 518.452942,421.270660 
	C527.710083,412.754181 537.359375,414.359528 544.051086,425.034088 
	C547.647644,430.771301 549.967834,437.295776 553.065125,443.362305 
	C556.611938,450.309235 559.698975,457.631805 564.204407,463.917603 
	C572.307556,475.222626 583.345215,478.107727 595.900879,472.157379 
	C603.190857,468.702454 610.315796,464.300323 616.424866,459.054779 
	C645.418884,434.159210 668.440979,404.174591 687.574097,371.339874 
	C704.369812,342.516449 713.430542,310.473785 723.133850,278.802887 
	C726.220825,268.727020 728.105591,258.414795 727.082947,247.768799 
	C725.762024,234.016754 713.402832,221.543060 699.636414,220.107956 
	C683.509338,218.426758 672.860718,225.726791 668.337036,241.619934 
	C667.745789,243.697220 667.102417,245.819412 666.954224,247.953506 
	C665.870422,263.562836 665.360107,279.227325 663.753052,294.779816 
	C662.597839,305.959839 661.184998,317.360626 657.807007,328.002686 
	C653.299011,342.205017 645.428894,354.956299 634.263367,365.199554 
	C622.972900,375.557434 610.797180,374.833679 600.580933,363.409637 
	C594.022400,356.075775 590.501770,347.430756 590.118164,336.688019 
z"/>
<path fill="#EEECDF" opacity="1.000000" stroke="none" 
	d="
M871.777344,684.753540 
	C870.392273,715.374023 864.185669,744.342957 849.962708,771.176941 
	C825.789978,816.782898 787.701233,843.042725 736.955994,850.929260 
	C725.811829,852.661194 714.406799,853.352966 703.117065,853.401184 
	C646.454651,853.642944 589.790710,853.512085 533.127258,853.512085 
	C531.321045,853.512085 529.514832,853.512085 527.371338,853.512085 
	C527.371338,735.504028 527.371338,617.967834 527.371338,500.125336 
	C528.628723,500.019958 529.747803,499.843414 530.866821,499.844177 
	C592.529358,499.885162 654.206726,499.137909 715.849426,500.272125 
	C758.363037,501.054382 796.094360,515.653564 825.936646,547.193237 
	C850.344543,572.989319 863.634521,604.292053 868.778992,638.984314 
	C870.991333,653.903564 870.860657,669.170227 871.777344,684.753540 
M620.296326,699.499878 
	C620.296326,725.939148 620.296326,752.378418 620.296326,778.662354 
	C621.302490,779.067139 621.756897,779.414429 622.205261,779.406799 
	C649.996033,778.937561 677.945435,780.118042 705.534790,777.502563 
	C737.307739,774.490601 758.940613,756.076416 767.869629,724.999207 
	C777.219177,692.457947 777.203430,659.488892 767.927979,626.899780 
	C760.907715,602.234436 744.942017,585.371155 719.923279,578.542542 
	C710.071472,575.853516 699.646606,574.407471 689.429932,574.089111 
	C667.795166,573.414917 646.125671,573.846497 624.470459,573.855896 
	C623.210449,573.856445 621.950562,574.136230 620.296448,574.333008 
	C620.296448,615.935974 620.296448,657.217896 620.296326,699.499878 
z"/>
<path fill="#EEECDE" opacity="1.000000" stroke="none" 
	d="
M515.838562,786.000000 
	C515.838257,804.496033 515.853210,822.492126 515.831482,840.488159 
	C515.819885,850.143311 512.530029,853.491760 502.988800,853.503723 
	C481.160278,853.531189 459.331696,853.523682 437.503143,853.507874 
	C428.453796,853.501282 426.075562,851.502380 424.443726,842.680359 
	C422.859741,834.117126 414.445587,830.864258 407.929810,836.930359 
	C372.736145,869.695190 298.889832,869.329224 261.344238,842.089966 
	C237.501038,824.791748 223.457687,801.116394 216.660263,773.163696 
	C206.048218,729.524353 206.540848,686.143127 225.026428,644.457458 
	C242.411011,605.254639 273.477448,584.221069 315.956635,579.874573 
	C339.688812,577.446167 362.988281,579.286072 384.869995,589.449402 
	C392.628082,593.052795 399.670502,598.327942 406.699066,603.319458 
	C410.606812,606.094666 414.189697,608.364624 418.989624,606.071411 
	C423.775543,603.784973 424.638885,599.542542 424.631683,594.769775 
	C424.591003,567.775757 424.599670,540.781616 424.617584,513.787537 
	C424.624451,503.434204 427.614227,500.493927 438.055023,500.489410 
	C459.383698,500.480194 480.712341,500.479126 502.041016,500.489990 
	C512.878723,500.495514 515.835327,503.511505 515.835876,514.558960 
	C515.840027,604.872620 515.838440,695.186340 515.838562,786.000000 
M336.184631,653.574158 
	C318.664673,658.612793 309.000641,670.908813 305.088257,688.052612 
	C300.391754,708.632568 300.514313,729.422119 304.401367,750.080017 
	C308.312531,770.865967 320.093567,784.668823 341.540771,788.809265 
	C354.413116,791.294312 367.365387,791.454590 380.302307,789.170227 
	C403.692322,785.039978 417.140594,772.309570 421.848389,749.182129 
	C425.711792,730.202698 425.736603,711.079956 421.891724,692.087280 
	C417.182159,668.823303 403.693939,655.873291 380.565155,651.883667 
	C365.936096,649.360046 351.383575,649.699585 336.184631,653.574158 
z"/>
<path fill="#EEECDE" opacity="1.000000" stroke="none" 
	d="
M590.110596,337.124084 
	C590.501770,347.430756 594.022400,356.075775 600.580933,363.409637 
	C610.797180,374.833679 622.972900,375.557434 634.263367,365.199554 
	C645.428894,354.956299 653.299011,342.205017 657.807007,328.002686 
	C661.184998,317.360626 662.597839,305.959839 663.753052,294.779816 
	C665.360107,279.227325 665.870422,263.562836 666.954224,247.953506 
	C667.102417,245.819412 667.745789,243.697220 668.337036,241.619934 
	C672.860718,225.726791 683.509338,218.426758 699.636414,220.107956 
	C713.402832,221.543060 725.762024,234.016754 727.082947,247.768799 
	C728.105591,258.414795 726.220825,268.727020 723.133850,278.802887 
	C713.430542,310.473785 704.369812,342.516449 687.574097,371.339874 
	C668.440979,404.174591 645.418884,434.159210 616.424866,459.054779 
	C610.315796,464.300323 603.190857,468.702454 595.900879,472.157379 
	C583.345215,478.107727 572.307556,475.222626 564.204407,463.917603 
	C559.698975,457.631805 556.611938,450.309235 553.065125,443.362305 
	C549.967834,437.295776 547.647644,430.771301 544.051086,425.034088 
	C537.359375,414.359528 527.710083,412.754181 518.452942,421.270660 
	C511.518555,427.650208 505.879944,435.428864 499.579071,442.508667 
	C491.732239,451.325562 484.134369,460.402374 475.784454,468.719910 
	C470.073334,474.408905 462.731506,477.949554 454.540527,479.041412 
	C439.756470,481.012085 427.676392,475.785614 419.435059,463.652679 
	C406.278229,444.283173 399.023468,422.854980 401.263977,399.117828 
	C405.016632,359.360077 413.036774,320.458038 426.186005,282.705078 
	C432.207367,265.417084 441.723022,250.623306 458.280853,241.485825 
	C461.903442,239.486694 465.681091,237.556076 469.622833,236.389740 
	C479.293457,233.528290 485.808655,237.151596 487.991882,246.977585 
	C491.062500,260.797363 489.892975,274.462982 484.764984,287.712250 
	C480.741455,298.107788 476.186401,308.325134 472.724915,318.902283 
	C469.682983,328.197388 467.374817,337.796478 465.572723,347.416840 
	C463.464935,358.669037 469.122192,368.830627 479.986908,375.230865 
	C489.735870,380.973907 499.429291,380.433533 508.768188,372.903076 
	C522.863098,361.537567 530.302979,345.896423 534.677612,328.898621 
	C536.633789,321.297791 536.971924,313.087769 536.821655,305.177460 
	C536.501221,288.309814 539.293457,271.943390 544.005432,255.940231 
	C550.965881,232.300308 576.879578,220.534500 599.691772,230.169495 
	C609.464905,234.297241 615.171448,241.770889 616.002563,252.276779 
	C617.485291,271.020233 613.249939,288.665161 604.356812,305.174469 
	C601.674377,310.154236 598.145752,314.718323 595.834534,319.846832 
	C593.409973,325.226624 591.981750,331.055420 590.110596,337.124084 
z"/>
<path fill="#C6C804" opacity="1.000000" stroke="none" 
	d="
M620.296387,698.999878 
	C620.296448,657.217896 620.296448,615.935974 620.296448,574.333008 
	C621.950562,574.136230 623.210449,573.856445 624.470459,573.855896 
	C646.125671,573.846497 667.795166,573.414917 689.429932,574.089111 
	C699.646606,574.407471 710.071472,575.853516 719.923279,578.542542 
	C744.942017,585.371155 760.907715,602.234436 767.927979,626.899780 
	C777.203430,659.488892 777.219177,692.457947 767.869629,724.999207 
	C758.940613,756.076416 737.307739,774.490601 705.534790,777.502563 
	C677.945435,780.118042 649.996033,778.937561 622.205261,779.406799 
	C621.756897,779.414429 621.302490,779.067139 620.296326,778.662354 
	C620.296326,752.378418 620.296326,725.939148 620.296387,698.999878 
z"/>
<path fill="#C6C804" opacity="1.000000" stroke="none" 
	d="
M336.563965,653.430481 
	C351.383575,649.699585 365.936096,649.360046 380.565155,651.883667 
	C403.693939,655.873291 417.182159,668.823303 421.891724,692.087280 
	C425.736603,711.079956 425.711792,730.202698 421.848389,749.182129 
	C417.140594,772.309570 403.692322,785.039978 380.302307,789.170227 
	C367.365387,791.454590 354.413116,791.294312 341.540771,788.809265 
	C320.093567,784.668823 308.312531,770.865967 304.401367,750.080017 
	C300.514313,729.422119 300.391754,708.632568 305.088257,688.052612 
	C309.000641,670.908813 318.664673,658.612793 336.563965,653.430481 
z"/>
</svg>